<svg width="202" height="173" xmlns="http://www.w3.org/2000/svg" preserveAspectRatio="xMidYMid meet">

 <g>
  <title>background</title>
  <rect fill="none" id="canvas_background" height="175" width="204" y="-1" x="-1"/>
 </g>
 <g>
  <title>Layer 1</title>
  <g id="svg_1" fill="#000000" transform="translate(0,173) scale(0.10000000149011612,-0.10000000149011612) ">
   <path fill="#595bd4" id="svg_2" d="m844,1723c-12,-2 -33,-16 -46,-31c-40,-43 -798,-1544 -798,-1580c0,-17 5,-43 12,-57c23,-51 47,-55 297,-55l229,0l377,160c207,88 380,162 384,165c5,2 35,-69 68,-158l60,-162l265,-3l266,-2l31,29c29,27 36,48 31,96c-2,25 -219,627 -229,638c-5,5 -920,-377 -1245,-521c-40,-18 -68,-22 -153,-22c-58,0 -103,4 -101,8c2,5 147,293 322,640l320,632l179,-2l179,-3l73,-200c40,-110 72,-201 72,-201c-17,-14 -313,-132 -317,-126c-4,4 -15,29 -24,55c-10,27 -19,47 -21,45c-11,-14 -236,-460 -233,-463c3,-3 867,360 874,368c7,6 -249,694 -264,711c-40,44 -58,46 -329,45c-142,-1 -268,-4 -279,-6zm830,-1279c42,-116 76,-214 76,-218c0,-3 -88,-6 -195,-6l-195,0l112,225c62,123 115,221 119,217c3,-4 41,-102 83,-218z"/>
   <path fill="#595bd4" id="svg_3" d="m2400,1195l0,-535l70,0l70,0l0,490l0,490l59,0l59,0l-29,-112c-16,-62 -29,-119 -29,-125c0,-8 13,-13 30,-13l30,0l0,-250l0,-250l-30,0c-26,0 -33,-7 -55,-50l-25,-50l74,0c66,0 78,3 107,27c55,47 59,67 59,338l0,245l-31,0c-24,0 -30,4 -25,15c25,67 66,232 66,269l0,46l-200,0l-200,0l0,-535z"/>
   <path fill="#595bd4" id="svg_4" d="m2832,1683l3,-48l253,-3l252,-2l0,-406c0,-502 8,-474 -141,-474l-79,0l-20,-40c-11,-21 -20,-42 -20,-45c0,-4 69,-5 154,-3c177,3 193,10 234,88c22,44 22,48 22,462l0,418l35,0l35,0l0,50l0,50l-366,0l-365,0l3,-47z"/>
   <path fill="#595bd4" id="svg_5" d="m3760,1410l0,-320l225,0l225,0l0,-60l0,-60l-225,0l-225,0l0,-50l0,-50l225,0l225,0l0,-60l0,-60l-260,0l-260,0l0,-45l0,-45l598,2l597,3l3,43l3,42l-265,0l-266,0l0,60l0,60l240,0l240,0l0,50l0,50l-240,0l-240,0l0,60l0,60l168,0c195,0 221,8 262,81c25,43 25,48 28,302l3,257l-530,0l-531,0l0,-320zm450,145l0,-85l-155,0l-155,0l0,85l0,85l155,0l155,0l0,-85zm470,0l0,-85l-160,0l-160,0l0,85l0,85l160,0l160,0l0,-85zm-470,-275l0,-90l-155,0l-155,0l0,90l0,90l155,0l155,0l0,-90zm470,50c0,-52 -21,-103 -51,-124c-19,-13 -49,-16 -146,-16l-123,0l0,90l0,90l160,0l160,0l0,-40z"/>
   <path fill="#595bd4" id="svg_6" d="m5020,1685l0,-45l120,0l120,0l0,-80c0,-77 -1,-80 -24,-80c-20,0 -25,8 -37,53l-14,52l-68,3c-75,3 -75,2 -52,-63c8,-22 15,-41 15,-42c0,-2 -13,-3 -30,-3c-29,0 -30,-2 -30,-44c0,-42 2,-45 29,-48l29,-3l-28,-72c-15,-40 -25,-74 -22,-77c3,-3 35,-6 72,-6l67,0l30,77c18,49 35,79 45,81c15,3 18,-8 20,-75l3,-78l73,-3l72,-3l0,81c0,77 1,81 21,78c17,-2 27,-19 48,-78l26,-75l63,-3c72,-3 73,-1 42,80c-27,70 -26,78 10,78c29,0 30,2 30,45c0,45 0,45 -35,45l-34,0l14,41c24,68 23,70 -47,67l-61,-3l-15,-52c-12,-45 -18,-53 -38,-53c-23,0 -24,3 -24,80l0,79l97,3l98,3l17,35c9,19 17,38 18,43c0,4 -139,7 -310,7l-310,0l0,-45z"/>
   <path fill="#595bd4" id="svg_7" d="m5690,1685l0,-45l50,0l50,0l0,-80l0,-80l-50,0l-50,0l0,-45l0,-45l50,0l50,0l0,-119l0,-118l-50,-31c-49,-31 -50,-32 -50,-82c0,-27 2,-50 4,-50c2,0 24,12 50,26l46,26l0,-130c0,-129 0,-131 -26,-151c-15,-12 -37,-21 -50,-21c-25,0 -44,-26 -44,-59c0,-19 6,-21 70,-21c81,0 128,16 158,55c22,28 22,30 22,521l0,494l-115,0l-115,0l0,-45z"/>
   <path fill="#595bd4" id="svg_8" d="m5960,1685l0,-45l50,0l50,0l0,-80l0,-80l-50,0l-50,0l0,-45l0,-45l50,0l50,0l0,-119l0,-118l-50,-31c-49,-31 -50,-32 -50,-82c0,-27 2,-50 4,-50c2,0 24,12 50,26l46,26l0,-136c0,-128 -1,-136 -22,-150c-12,-9 -35,-16 -51,-16c-23,0 -31,-7 -43,-35c-7,-19 -14,-37 -14,-40c0,-3 36,-5 80,-5c93,0 148,21 168,65c9,19 12,157 12,515l0,490l-115,0l-115,0l0,-45z"/>
   <path fill="#595bd4" id="svg_9" d="m6340,1685l0,-45l120,0l120,0l0,45l0,45l-120,0l-120,0l0,-45z"/>
   <path fill="#595bd4" id="svg_10" d="m6680,1685l0,-45l345,0c373,0 367,1 325,-53c-18,-23 -185,-97 -220,-97c-7,0 -49,23 -92,50l-80,51l-96,-3l-97,-3l110,-74c60,-41 105,-76 100,-78c-6,-3 -71,-26 -145,-51l-135,-47l-3,-62c-2,-44 1,-63 9,-63c7,0 103,29 215,65l203,65l193,-81c106,-45 196,-83 201,-86c4,-2 7,25 7,60l0,64l-116,54l-115,53l68,34c122,61 163,118 163,227l0,65l-420,0l-420,0l0,-45z"/>
   <path fill="#595bd4" id="svg_11" d="m6340,1525c0,-45 0,-45 35,-45l35,0l0,-342c0,-189 5,-361 10,-382c5,-22 20,-51 35,-65c24,-25 32,-26 143,-29l117,-4l18,36c9,20 17,41 17,46c0,6 -31,10 -68,10c-39,0 -75,5 -85,13c-15,11 -17,50 -19,407l-3,395l-117,3l-118,3l0,-46z"/>
   <path fill="#595bd4" id="svg_12" d="m2850,1214l0,-325l180,3c156,3 182,5 197,21c16,16 18,46 21,322l3,305l-201,0l-200,0l0,-326zm260,8c0,-156 -3,-221 -12,-230c-7,-7 -34,-12 -60,-12l-48,0l0,230l0,230l60,0l60,0l0,-218z"/>
   <path fill="#595bd4" id="svg_13" d="m7028,1168l-3,-73l-147,-3l-148,-3l0,-44l0,-45l150,0l151,0l-3,-62l-3,-63l-167,-3l-168,-2l0,-45l0,-45l170,0l170,0l0,-60l0,-60l85,0l85,0l0,60l0,60l160,0l160,0l0,45l0,45l-160,0l-160,0l0,65l0,65l140,0l140,0l0,45l0,45l-140,0l-140,0l0,75l0,75l-85,0l-84,0l-3,-72z"/>
   <path fill="#595bd4" id="svg_14" d="m5020,915l0,-255l250,0c302,0 319,4 356,84c22,48 24,62 24,239l0,187l-315,0l-315,0l0,-255zm240,125l0,-60l-50,0l-50,0l0,60l0,60l50,0l50,0l0,-60zm250,0l0,-60l-50,0l-50,0l0,60l0,60l50,0l50,0l0,-60zm-250,-225l0,-65l-50,0l-50,0l0,65l0,65l50,0l50,0l0,-65zm247,23c-6,-47 -43,-88 -78,-88c-17,0 -19,7 -19,65l0,65l51,0l52,0l-6,-42z"/>
   <path fill="#595bd4" id="svg_15" d="m2470,160c-38,-77 -70,-142 -70,-145c0,-3 11,-5 25,-5c19,0 29,9 42,35l17,35l86,0l86,0l17,-35c13,-26 23,-35 42,-35c14,0 25,2 25,5c0,3 -32,68 -70,145c-67,133 -72,140 -100,140c-28,0 -33,-7 -100,-140zm134,24c14,-31 26,-58 26,-60c0,-2 -27,-4 -60,-4c-33,0 -60,2 -60,4c0,14 52,116 59,116c5,0 21,-25 35,-56z"/>
   <path fill="#595bd4" id="svg_16" d="m2770,155l0,-145l131,0c119,0 130,2 127,18c-3,15 -17,17 -106,20l-102,3l0,124l0,125l-25,0l-25,0l0,-145z"/>
   <path fill="#595bd4" id="svg_17" d="m3070,155l0,-145l25,0l25,0l0,145l0,145l-25,0l-25,0l0,-145z"/>
   <path fill="#595bd4" id="svg_18" d="m3180,155l0,-145l105,0c139,0 175,17 175,84c0,12 -11,33 -25,46l-24,23l19,25c27,33 25,48 -9,83c-29,28 -32,29 -135,29l-106,0l0,-145zm208,93c16,-16 15,-33 -4,-52c-11,-12 -35,-16 -85,-16l-69,0l0,40l0,40l73,0c43,0 78,-5 85,-12zm0,-124c25,-17 29,-46 8,-64c-8,-6 -49,-14 -90,-17l-76,-6l0,52l0,51l68,0c45,0 75,-5 90,-16z"/>
   <path fill="#595bd4" id="svg_19" d="m3612,287c-13,-15 -132,-259 -132,-269c0,-5 10,-8 23,-8c17,0 28,10 40,35l17,35l88,0l88,0l15,-33c10,-23 22,-33 42,-35c15,-2 27,-1 27,2c0,4 -32,69 -70,146c-66,131 -73,140 -99,140c-16,0 -33,-6 -39,-13zm68,-97c17,-33 29,-60 28,-61c-19,-5 -110,-4 -114,2c-4,7 46,119 53,119c1,0 16,-27 33,-60z"/>
   <path fill="#595bd4" id="svg_20" d="m3850,154l0,-146l119,4c100,2 122,6 140,22c29,27 28,76 -3,105l-25,23l21,28c14,20 19,36 14,54c-10,42 -52,56 -166,56l-100,0l0,-146zm208,94c16,-16 15,-33 -4,-52c-11,-12 -35,-16 -85,-16l-69,0l0,40l0,40l73,0c43,0 78,-5 85,-12zm0,-124c26,-18 29,-46 7,-64c-9,-7 -49,-15 -90,-18l-75,-5l0,52l0,51l68,0c45,0 75,-5 90,-16z"/>
   <path fill="#595bd4" id="svg_21" d="m4200,161c-38,-78 -70,-143 -70,-146c0,-3 11,-5 25,-5c19,0 29,9 42,35l17,35l88,0l88,0l14,-35c12,-27 21,-35 40,-35c15,0 26,6 26,13c0,6 -31,70 -68,142c-63,123 -69,130 -99,133c-32,3 -33,3 -103,-137zm156,-29c-6,-5 -100,-10 -108,-5c-4,2 3,25 15,51c39,82 38,82 69,17c15,-32 26,-61 24,-63z"/>
   <path fill="#595bd4" id="svg_22" d="m4640,275c0,-24 2,-25 60,-25l60,0l0,-120l0,-120l25,0l25,0l0,120l0,119l63,3c54,3 62,5 62,23c0,19 -8,20 -147,23l-148,3l0,-26z"/>
   <path fill="#595bd4" id="svg_23" d="m4977,293c-4,-3 -7,-69 -7,-145l0,-138l25,0c24,0 25,3 25,60l0,60l49,0c61,0 107,-34 117,-86c6,-31 9,-34 40,-34c32,0 34,2 28,28c-9,37 -19,54 -43,76l-20,19l29,27c53,49 31,113 -45,130c-46,11 -188,13 -198,3zm178,-43c37,-14 43,-39 16,-62c-17,-13 -40,-18 -87,-18l-64,0l0,45l0,45l54,0c30,0 66,-4 81,-10z"/>
   <path fill="#595bd4" id="svg_24" d="m5362,155l-72,-145l29,0c25,0 31,6 41,35l12,35l89,0l89,0l17,-35c13,-28 23,-35 45,-35l28,0l-72,145c-70,139 -74,145 -103,145c-29,0 -33,-6 -103,-145zm131,35l26,-60l-60,0c-32,0 -59,2 -59,5c0,11 55,115 60,115c4,0 18,-27 33,-60z"/>
   <path fill="#595bd4" id="svg_25" d="m5667,293c-4,-3 -7,-69 -7,-145l0,-138l25,0c24,0 24,1 27,105l3,106l90,-106c80,-94 94,-105 123,-105l33,0l-3,143l-3,142l-25,0c-25,0 -25,-1 -30,-103l-5,-102l-93,105c-85,96 -115,118 -135,98z"/>
   <path fill="#595bd4" id="svg_26" d="m6065,286c-41,-18 -57,-40 -53,-72c4,-38 41,-61 128,-79c80,-17 104,-32 94,-58c-17,-47 -148,-40 -181,9c-10,16 -23,24 -36,22c-33,-5 -31,-26 5,-62c27,-27 45,-35 89,-41c102,-13 184,30 177,91c-4,39 -51,68 -136,83c-85,15 -108,34 -73,62c34,28 93,25 129,-6c30,-25 72,-34 72,-14c0,60 -133,101 -215,65z"/>
   <path fill="#595bd4" id="svg_27" d="m6357,293c-4,-3 -7,-69 -7,-145l0,-138l116,0c105,0 115,2 112,18c-3,14 -17,17 -91,20l-87,3l0,124c0,115 -2,125 -18,125c-10,0 -22,-3 -25,-7z"/>
   <path fill="#595bd4" id="svg_28" d="m6662,155l-72,-145l29,0c25,0 32,6 42,35l13,35l88,0l88,0l17,-35c13,-28 23,-35 45,-35l28,0l-72,145c-70,139 -74,145 -103,145c-29,0 -33,-6 -103,-145zm131,40c15,-31 27,-58 27,-60c0,-3 -27,-5 -60,-5c-33,0 -60,2 -60,5c0,10 55,115 60,115c3,0 18,-25 33,-55z"/>
   <path fill="#595bd4" id="svg_29" d="m7237,294c-4,-4 -7,-70 -7,-146l0,-138l146,0c133,0 145,1 142,18c-3,15 -18,17 -116,20l-112,3l0,44l0,45l100,0c93,0 100,1 100,20c0,19 -7,20 -100,20l-100,0l0,35l0,34l113,3c104,3 112,4 112,23c0,19 -8,20 -136,23c-74,1 -138,-1 -142,-4z"/>
   <path fill="#595bd4" id="svg_30" d="m6900,270c0,-18 7,-20 60,-20l60,0l0,-120l0,-120l25,0l25,0l0,120l0,120l65,0c58,0 65,2 65,20c0,19 -7,20 -150,20c-143,0 -150,-1 -150,-20z"/>
  </g>
 </g>
</svg>