<svg xmlns="http://www.w3.org/2000/svg" width="512" height="512" viewBox="0 0 41.756 41.756"><path d="M27.948 20.878L40.291 8.536c1.953-1.953 1.953-5.119 0-7.071-1.951-1.952-5.119-1.952-7.07 0L20.878 13.809 8.535 1.465c-1.951-1.952-5.119-1.952-7.07 0-1.953 1.953-1.953 5.119 0 7.071l12.342 12.342L1.465 33.22c-1.953 1.953-1.953 5.119 0 7.071.975.977 2.256 1.464 3.535 1.464 1.278 0 2.56-.487 3.535-1.464l12.343-12.342 12.343 12.343c.976.977 2.256 1.464 3.535 1.464s2.56-.487 3.535-1.464c1.953-1.953 1.953-5.119 0-7.071L27.948 20.878z" fill="#555555"/></svg>
