<?xml version="1.0" encoding="iso-8859-1"?>
<svg xmlns="http://www.w3.org/2000/svg" xmlns:xlink="http://www.w3.org/1999/xlink" version="1.1" viewBox="0 0 26.1 26.1" enable-background="new 0 0 26.1 26.1" width="512px" height="512px">
  <g>
    <path d="m16,25.042v-2c0-0.6 0.4-1 1-1h1c0.4,0 0.7-0.5 0.4-0.9l-4-4c-0.4-0.4-0.4-1
      0-1.4l1.4-1.4c0.4-0.4 1-0.4 1.4,0l4,4c0.3,0.3 0.9,0.1 0.9-0.4v-1c0-0.6 0.4-1
      1-1h2c0.6,0 1,0.4 1,1v8c0,0.6-0.4,1-1,1h-8c-0.7,0.1-1.1-0.3-1.1-0.9z" fill="#000000"/>
    <path d="m8.9,11.742l-4-4c-0.3-0.3-0.9-0.1-0.9,0.4v1c0,0.6-0.4,1-1,1h-2c-0.6,0-1-0.4-1-1v-8c0-0.6
      0.4-1 1-1h8c0.6,0 1,0.4 1,1v2c0,0.6-0.4,1-1,1h-1c-0.4,0-0.7,0.5-0.4,0.9l4,4c0.4,0.4 0.4,1
      0,1.4l-1.4,1.4c-0.3,0.3-0.9,0.3-1.3-0.1z" fill="#000000"/>
  </g>
</svg>
