<svg xmlns="http://www.w3.org/2000/svg" viewBox="0 0 512 512"><path d="M295.3 361.5L432 498.3c18.3 18.3 47.9 18.3 66.2 0 18.3-18.3 18.3-47.9 0-66.2L361.5 295.3l-66.2 66.2z" fill="#5a5a5a"/><path d="M295.3 361.5l33.1-33.1 169.8 169.8c-18.3 18.3-47.9 18.3-66.2 0L295.3 361.5z" fill="#444"/><path d="M218.5 0c-60 0-115 24.5-154.5 64S0 158.5 0 218.5C0 339 98 437 218.5 437c60 0 115-24.5 154.5-64s64-94.5 64-154.5C437.1 98 339.1 0 218.5 0z" fill="#00abe9"/><path d="M64 64l309.1 309.1c-39.5 39.5-94.5 64-154.5 64C98 437.1 0 339.1 0 218.5c0-60 24.5-115 64-154.5z" fill="#0095ff"/><path d="M218.8 62.5c-43-.2-82.1 17.7-110.4 45.9-28.3 28.3-45.9 67.1-45.7 110.2-.2 85.9 70 156.1 156.1 156.1 42.8 0 81.9-17.4 110.2-45.7 28.3-28.3 45.9-67.6 45.9-110.4-.1-86.1-70.3-156.3-156.1-156.1z" fill="#e7e7e7"/><path d="M108.4 108.4l220.5 220.5c-28.3 28.3-67.3 45.7-110.2 45.7-86.1 0-156.3-70.2-156.1-156.1-.1-43 17.5-81.9 45.8-110.1z" fill="#d3d3d8"/></svg>