<svg xmlns="http://www.w3.org/2000/svg" viewBox="0 0 475.085 475.085" width="475.085" height="475.085"><path fill="#aaa" d="M379.577 247.395c-14.944-18.75-31.833-28.12-50.679-28.12V73.092c9.896 0 18.47-3.616 25.693-10.848 7.238-7.233 10.858-15.802 10.858-25.697 0-9.9-3.62-18.464-10.858-25.697C347.368 3.617 338.795 0 328.898 0H146.179c-9.9 0-18.464 3.617-25.697 10.85-7.234 7.233-10.85 15.796-10.85 25.697 0 9.899 3.616 18.464 10.85 25.697 7.233 7.232 15.8 10.848 25.697 10.848v146.179c-18.844 0-35.734 9.374-50.677 28.123-14.941 18.75-22.414 39.824-22.414 63.242 0 4.948 1.809 9.232 5.426 12.847 3.619 3.613 7.901 5.421 12.85 5.421h115.344l21.698 138.474c.95 5.141 3.996 7.707 9.135 7.707h.291c2.274 0 4.235-.808 5.851-2.423 1.615-1.619 2.614-3.572 2.994-5.855l14.558-137.902h122.482c4.948 0 9.236-1.808 12.847-5.421 3.621-3.614 5.432-7.898 5.432-12.847.003-23.415-7.477-44.492-22.419-63.242zM210.132 210.14c0 2.662-.855 4.849-2.57 6.565-1.713 1.714-3.903 2.57-6.567 2.57-2.662 0-4.853-.855-6.567-2.57-1.713-1.713-2.568-3.903-2.568-6.565V82.233c0-2.664.855-4.858 2.568-6.567 1.714-1.711 3.905-2.568 6.567-2.568 2.664 0 4.854.854 6.567 2.568 1.714 1.712 2.57 3.903 2.57 6.567V210.14z"/></svg>
