<svg xmlns="http://www.w3.org/2000/svg" viewBox="0 0 512 512"><path d="M56.6 73.2c-14 17.1-22.8 37.9-25.4 59.9-9.5 81.7-9.5 164.2 0 245.8 6.3 53.5 48.4 95.6 101.9 101.9 81.7 9.5 164.2 9.5 245.8 0 22-2.6 42.8-11.4 59.9-25.4L56.6 73.2z" fill="#518ef8"/><path d="M438 458.5c14-17.1 39.9-57.7 42.4-79.7 9.5-81.7 9.5-164.2 0-245.8-6.3-53.5-48.4-95.6-101.9-101.9-81.7-9.5-164.2-9.5-245.8 0-22 2.5-59.1 29.9-76.2 43.9L438 458.5z" fill="#fff"/><path d="M133.3 388H213l12.2 24.3 28.6-14.3-66.3-132.6h-28.6L92.5 398l28.6 14.3 12.2-24.3zm39.8-79.7L197 356h-47.7l23.8-47.7zm166.3-218v17.1h-50.3v32h9.2l36 42-40.7 47.6 24.3 20.8 37.6-43.8 37.6 43.8 24.3-20.8-40.8-47.6 36-42h9.2v-32h-50.3V90.3h-32.1zm16 66.5l-14.9-17.4h29.8l-14.9 17.4z"/><path d="M496.8 131.2c-6.9-61-55-109.1-116-116-82.9-9.7-166.7-9.7-249.6 0-17.2 2-33.8 7.4-48.9 15.8l23.9 23.9c9.1-4 18.8-6.7 28.7-7.8 80.4-9.4 161.7-9.4 242.2 0 46.2 5.2 82.6 41.7 87.9 87.9 9.4 80.4 9.4 161.7 0 242.2-2.4 20.9-11.5 40.6-25.8 56L67.9 61.8c-6.2-6.2-16.4-6.2-22.6 0-.4.4-.7.8-1.1 1.2-16 19.5-26 43.1-29 68.2-9.7 82.9-9.7 166.7 0 249.6 6.9 61 55 109.1 116 116 82.9 9.7 166.7 9.7 249.6 0 60.8-7.2 108.8-55.2 116-116 9.7-82.9 9.7-166.7 0-249.6zM377.1 465c-80.4 9.4-161.7 9.4-242.2 0-46.2-5.2-82.6-41.7-87.9-87.9-9.4-80.4-9.4-161.7 0-242.2 1.5-12.9 5.5-25.4 11.9-36.8l355 355c-11.4 6.3-23.9 10.4-36.8 11.9z"/></svg>