<?xml version="1.0" encoding="iso-8859-1"?>
<!-- Generator: Adobe Illustrator 19.0.0, SVG Export Plug-In . SVG Version: 6.00 Build 0)  -->
<svg version="1.1" id="Layer_1" xmlns="http://www.w3.org/2000/svg" xmlns:xlink="http://www.w3.org/1999/xlink" x="0px" y="0px"
	 viewBox="0 0 512 512" style="enable-background:new 0 0 512 512;" xml:space="preserve">
<g>
	<path style="fill:#E6E6E6;" d="M376.541,317.052c-9.09,12.486-19.397,25.025-30.867,36.495l-39.369-118.936h68.672h48.125
		C423.102,234.611,406.632,275.584,376.541,317.052z"/>
	<path style="fill:#E6E6E6;" d="M376.541,317.052c30.092-41.468,46.561-82.441,46.561-82.441h-48.125h-68.672l-43.821-132.345
		h207.848c17.472,0,31.642,14.17,31.642,31.642v332.412c0,17.472-14.17,31.642-31.642,31.642H281.399l82.883-88.23l-18.608-56.186
		C357.143,342.078,367.45,329.538,376.541,317.052z"/>
</g>
<polygon style="fill:#3A5BBC;" points="364.282,409.734 281.399,497.963 252.043,409.734 "/>
<path style="fill:#518EF8;" d="M345.674,353.547l18.608,56.186H252.043H41.669c-17.486,0-31.642-14.17-31.642-31.642V45.679
	c0-17.472,14.157-31.642,31.642-31.642h191.606l29.209,88.23l43.821,132.345L345.674,353.547z"/>
<path style="fill:#FFFFFF;" d="M153.48,286.145c-41.095,0-74.527-33.432-74.527-74.527s33.432-74.527,74.527-74.527
	c19.893,0,38.609,7.75,52.697,21.822c3.918,3.913,3.921,10.261,0.008,14.18c-3.914,3.917-10.261,3.922-14.18,0.008
	c-10.303-10.291-23.984-15.958-38.527-15.958c-30.038,0-54.475,24.437-54.475,54.475s24.437,54.475,54.475,54.475
	c26.613,0,48.83-19.185,53.55-44.449H153.48c-5.537,0-10.026-4.489-10.026-10.026s4.489-10.026,10.026-10.026h64.501
	c5.537,0,10.026,4.489,10.026,10.026C228.007,252.713,194.575,286.145,153.48,286.145z"/>
<path style="fill:#333333;" d="M470.331,92.24H269.728l-26.935-81.355c-1.358-4.104-5.195-6.875-9.518-6.875H41.669
	C18.693,4.01,0,22.703,0,45.679v332.412c0,22.976,18.693,41.668,41.669,41.668h203.145l27.073,81.369
	c1.364,4.097,5.195,6.861,9.513,6.861h188.932c22.976,0,41.669-18.693,41.669-41.669V133.909
	C512,110.933,493.307,92.24,470.331,92.24z M20.052,378.091V45.679c0-11.919,9.697-21.616,21.616-21.616h184.364l110.024,332.32
	c0.011,0.037,0.025,0.072,0.036,0.11l14.307,43.215H41.669C29.749,399.708,20.052,390.01,20.052,378.091z M407.622,244.637
	c-6.204,13.055-16.952,33.871-31.68,55.763c-13.577-16.957-22.159-28.758-22.259-28.898c-3.254-4.481-9.519-5.481-14.003-2.227
	c-4.482,3.251-5.48,9.521-2.228,14.002c0.46,0.634,10.495,14.439,26.373,34.049c-4.585,6.017-9.236,11.721-13.93,17.054
	l-29.711-89.742H407.622z M265.946,419.76h75.162l-55.503,59.085L265.946,419.76z M491.948,466.321
	c0,11.919-9.697,21.616-21.616,21.616H304.574l67.015-71.339l-0.004-0.004c0.293-0.311,0.571-0.64,0.825-0.992
	c1.885-2.609,2.402-5.966,1.39-9.022l-16.687-50.405c6.691-7.013,13.317-14.702,19.813-22.997
	c15.742,18.689,31.105,35.557,45.771,50.223c1.957,1.957,4.524,2.937,7.089,2.937s5.132-0.979,7.089-2.937
	c3.915-3.916,3.915-10.264,0-14.178c-15.218-15.218-31.245-32.922-47.703-52.653c21.266-30.577,35.051-59.53,40.547-71.934h21.456
	c5.537,0,10.026-4.489,10.026-10.026s-4.489-10.026-10.026-10.026h-66.172v-18.047c0-5.537-4.489-10.026-10.026-10.026
	S364.95,201,364.95,206.537v18.048h-51.406l-37.178-112.292h193.965c11.919,0,21.616,9.697,21.616,21.616V466.321z"/>
<g>
</g>
<g>
</g>
<g>
</g>
<g>
</g>
<g>
</g>
<g>
</g>
<g>
</g>
<g>
</g>
<g>
</g>
<g>
</g>
<g>
</g>
<g>
</g>
<g>
</g>
<g>
</g>
<g>
</g>
</svg>
