<?xml version="1.0" encoding="iso-8859-1"?>
<!-- Generator: Adobe Illustrator 19.0.0, SVG Export Plug-In . SVG Version: 6.00 Build 0)  -->
<svg version="1.1" id="Capa_1" xmlns="http://www.w3.org/2000/svg" xmlns:xlink="http://www.w3.org/1999/xlink" x="0px" y="0px"
	 viewBox="0 0 512 512" style="enable-background:new 0 0 512 512;" xml:space="preserve">
<path style="fill:#303C42;" d="M256,0C114.844,0,0,114.844,0,256s114.844,256,256,256s256-114.844,256-256S397.156,0,256,0z"/>
<path style="fill:#42A5F5;" d="M21.333,256c0-111.539,78.292-204.974,182.758-228.686l147.583,442.751
	c-29.259,13.13-61.583,20.602-95.674,20.602C126.604,490.667,21.333,385.396,21.333,256z"/>
<g>
	<path style="fill:#FFFFFF;" d="M392.544,192c-5.059,16.923-19.604,44.941-39.669,70.395c-10.962-12.513-19.888-24.102-22.99-31.738
		c-2.219-5.469-8.49-8.052-13.896-5.875c-5.458,2.219-8.094,8.438-5.875,13.896c4.27,10.509,15.54,25.139,28.633,39.982
		c-6.904,7.253-14.135,14.02-21.827,19.706L281.465,192H392.544z"/>
	<path style="fill:#FFFFFF;" d="M370.926,460.38l-47.048-141.145l2.299-1.204c9.331-6.629,18.22-14.974,26.757-23.892
		c20.487,21.598,41.145,40.685,45.202,44.392c2.042,1.875,4.625,2.802,7.198,2.802c2.885,0,5.76-1.167,7.865-3.458
		c3.979-4.354,3.688-11.094-0.656-15.073c-9.986-9.145-28.384-26.732-45.41-44.732c24.28-29.934,42.332-64.243,47.283-86.07h22.919
		c5.896,0,10.667-4.771,10.667-10.667c0-5.896-4.771-10.667-10.667-10.667h-74.667V160c0-5.896-4.771-10.667-10.667-10.667
		c-5.896,0-10.667,4.771-10.667,10.667v10.667h-66.979l-49.03-147.091c10.066-1.323,20.255-2.242,30.676-2.242
		c129.396,0,234.667,105.271,234.667,234.667C490.667,343.638,442.294,420.087,370.926,460.38z"/>
	<path style="fill:#FFFFFF;" d="M245.333,245.333h-74.667c-5.896,0-10.667,4.771-10.667,10.667c0,5.896,4.771,10.667,10.667,10.667
		h63.115C228.688,296.896,202.323,320,170.667,320c-35.292,0-64-28.708-64-64s28.708-64,64-64c15.24,0,30.01,5.458,41.583,15.354
		c4.49,3.833,11.229,3.323,15.042-1.167c3.833-4.479,3.302-11.208-1.167-15.042c-15.438-13.208-35.135-20.479-55.458-20.479
		c-47.052,0-85.333,38.281-85.333,85.333s38.281,85.333,85.333,85.333S256,303.052,256,256
		C256,250.104,251.229,245.333,245.333,245.333z"/>
</g>
<path style="opacity:0.1;enable-background:new    ;" d="M53.474,373.973C94.217,443.637,169.635,490.667,256,490.667
	c34.091,0,66.415-7.471,95.674-20.602l-21.413-64.238c-34.473,19.921-74.335,31.507-116.928,31.507
	C151.544,437.333,95.426,413.147,53.474,373.973z"/>
<path style="opacity:0.1;enable-background:new    ;" d="M415.854,84.688c16.046,27.432,26.764,58.299,30.52,91.32
	c0.941,1.59,1.626,3.342,1.626,5.326c0,1.493-0.315,2.909-0.868,4.199c0.413,5.68,0.868,11.35,0.868,17.134
	c0,44.56-12.712,86.108-34.367,121.633c3.076,4.026,3.109,9.698-0.435,13.576c-2.104,2.292-4.979,3.458-7.865,3.458
	c-0.928,0-1.836-0.262-2.742-0.504c-14.983,20.467-33.118,38.431-53.807,53.125l22.142,66.426
	C442.294,420.087,490.667,343.638,490.667,256C490.667,188.391,461.758,127.549,415.854,84.688z"/>
<linearGradient id="SVGID_1_" gradientUnits="userSpaceOnUse" x1="-45.5784" y1="639.555" x2="-23.8278" y2="629.4138" gradientTransform="matrix(21.3333 0 0 -21.3333 996.3334 13791.667)">
	<stop  offset="0" style="stop-color:#FFFFFF;stop-opacity:0.2"/>
	<stop  offset="1" style="stop-color:#FFFFFF;stop-opacity:0"/>
</linearGradient>
<path style="fill:url(#SVGID_1_);" d="M256,0C114.844,0,0,114.844,0,256s114.844,256,256,256s256-114.844,256-256S397.156,0,256,0z"
	/>
<g>
</g>
<g>
</g>
<g>
</g>
<g>
</g>
<g>
</g>
<g>
</g>
<g>
</g>
<g>
</g>
<g>
</g>
<g>
</g>
<g>
</g>
<g>
</g>
<g>
</g>
<g>
</g>
<g>
</g>
</svg>
