<svg class="icon" style="fill: #59a4a6" viewBox="0 0 1024 1024" version="1.1" xmlns="http://www.w3.org/2000/svg" p-id="7985"><path d="M911.36 426.666667L433.493333 238.933333c-6.826667-3.413333-13.653333 0-17.066666 3.413334-6.826667 6.826667-6.826667 13.653333-6.826667 20.48l102.4 238.933333 10.24 10.24 146.773333 40.96-416.426666 225.28 116.053333-98.986667c3.413333-3.413333 6.826667-6.826667 6.826667-13.653333V102.4c0-6.826667-3.413333-13.653333-10.24-17.066667L126.293333 0c-6.826667 0-13.653333 0-17.066666 3.413333-3.413333 3.413333-6.826667 6.826667-6.826667 13.653334v853.333333c0 3.413333 0 3.413333 3.413333 6.826667l3.413334 3.413333 3.413333 3.413333 238.933333 136.533334c3.413333 0 6.826667 3.413333 6.826667 3.413333 3.413333 0 6.826667 0 10.24-3.413333l546.133333-341.333334c3.413333-3.413333 6.826667-10.24 6.826667-13.653333V443.733333c0-6.826667-3.413333-13.653333-10.24-17.066666z" fill="" p-id="7986"></path></svg>
