<svg xmlns="http://www.w3.org/2000/svg" viewBox="0 0 512 512"><circle cx="256.636" cy="256.313" r="247.916" fill="#00ab94"/><path d="M136.893 384.254V96.671a2.314 2.314 0 0 1 2.95-2.226l71.901 20.543a2.313 2.313 0 0 1 1.678 2.226v230.649c0 1.818 1.999 2.926 3.541 1.963l78.118-48.824c1.425-.891 1.456-2.957.057-3.889l-28.117-18.744a2.317 2.317 0 0 1-.942-1.29l-20.366-71.281c-.532-1.865 1.326-3.518 3.116-2.772l124.851 52.022a2.314 2.314 0 0 1 1.424 2.136v84.014c0 .832-.447 1.601-1.171 2.012l-150.008 85.25a2.316 2.316 0 0 1-2.187.054l-83.578-42.193a2.317 2.317 0 0 1-1.267-2.067z" fill="#fff"/><path d="M437.019 74.982C388.667 26.628 324.379 0 256 0S123.333 26.628 74.981 74.982C26.628 123.333 0 187.62 0 256s26.628 132.667 74.981 181.019C123.333 485.372 187.62 512 256 512s132.667-26.628 181.019-74.982C485.372 388.667 512 324.379 512 256s-26.628-132.667-74.981-181.018zM256 495.832C123.756 495.832 16.168 388.244 16.168 256S123.756 16.168 256 16.168 495.832 123.756 495.832 256 388.244 495.832 256 495.832z"/><path d="M377.678 248.538l-129.347-53.895a8.096 8.096 0 0 0-9.756 2.853c-1.429 2.035-1.748 4.654-1.065 7.046l21.496 75.236a8.087 8.087 0 0 0 3.289 4.506l21.918 14.613-63.244 39.527v-31.9a8.084 8.084 0 0 0-16.168 0v46.247c0 2.344.9 4.649 2.641 6.219a8.092 8.092 0 0 0 9.728.876l86.232-53.895a8.083 8.083 0 0 0 .199-13.583l-29.864-19.91-16.131-56.457 108.879 45.367v76.138l-143.876 81.765-77.092-38.92v-275.34l59.284 16.938v145.174a8.084 8.084 0 0 0 16.168 0V115.874a8.086 8.086 0 0 0-5.863-7.774l-75.453-21.558a8.093 8.093 0 0 0-8.827 3.106c-1.012 1.414-1.478 3.15-1.478 4.888v290.811a8.085 8.085 0 0 0 4.441 7.217l85.403 43.116a8.082 8.082 0 0 0 7.638-.187l151.734-86.232a8.084 8.084 0 0 0 4.09-7.029V256a8.085 8.085 0 0 0-4.976-7.462z"/></svg>
