<?xml version="1.0" encoding="iso-8859-1"?>
<!-- Generator: Adobe Illustrator 19.0.0, SVG Export Plug-In . SVG Version: 6.00 Build 0)  -->
<svg version="1.1" id="Layer_1" xmlns="http://www.w3.org/2000/svg" xmlns:xlink="http://www.w3.org/1999/xlink" x="0px" y="0px"
	 viewBox="0 0 512 512" style="enable-background:new 0 0 512 512;" xml:space="preserve">
<path style="fill:#28B446;" d="M409.911,447.723l0.014,0.014c-42.135,33.868-95.659,54.132-153.924,54.132
	c-93.632,0-175.039-52.335-216.567-129.351l79.677-65.223c20.764,55.415,74.22,94.862,136.889,94.862
	c26.937,0,52.173-7.281,73.828-19.994L409.911,447.723z"/>
<path style="fill:#518EF8;" d="M497.572,210.069c2.823,14.874,4.296,30.234,4.296,45.931c0,17.603-1.851,34.773-5.377,51.335
	c-11.969,56.361-43.243,105.575-86.567,140.401l-0.014-0.014l-80.083-65.56c28.748-16.86,51.214-43.243,63.048-74.828H261.404
	v-97.266h133.39L497.572,210.069L497.572,210.069z"/>
<path style="fill:#F14336;" d="M412.937,66.736l-79.65,65.209c-22.412-14.009-48.903-22.101-77.286-22.101
	c-64.088,0-118.544,41.257-138.267,98.658l-80.096-65.574h-0.014C78.543,64.034,160.976,10.132,256,10.132
	C315.657,10.132,370.356,31.382,412.937,66.736z"/>
<path style="fill:#FBBB00;" d="M119.111,307.295l-79.677,65.223C20.737,337.839,10.132,298.162,10.132,256
	c0-40.771,9.916-79.218,27.491-113.072h0.014l80.096,65.574c-5.106,14.887-7.889,30.869-7.889,47.498
	C109.844,274.048,113.113,291.34,119.111,307.295z"/>
<path style="fill:#333333;" d="M507.526,208.179c-0.908-4.782-5.088-8.242-9.954-8.242H261.404c-5.596,0-10.132,4.536-10.132,10.132
	v97.267c0,5.596,4.536,10.132,10.132,10.132H377.37c-11.752,23.149-30.063,42.7-52.671,55.958
	c-20.727,12.168-44.483,18.6-68.699,18.6c-56.416,0-107.616-35.479-127.406-88.295c-5.72-15.213-8.619-31.271-8.619-47.729
	c0-15.134,2.469-30.009,7.34-44.206c18.871-54.919,70.586-91.818,128.685-91.818c25.528,0,50.398,7.11,71.916,20.561
	c3.685,2.303,8.427,1.999,11.788-0.752l79.65-65.209c2.341-1.917,3.703-4.78,3.714-7.804c0.011-3.026-1.332-5.897-3.66-7.83
	C373.63,20.933,315.597,0,256,0C159.986,0,72.863,52.979,28.631,138.259C9.901,174.338,0,215.052,0,256
	c0,42.345,10.552,84.298,30.515,121.326C75.307,460.396,161.708,512,256,512c58.132,0,115.05-20.018,160.272-56.366l0,0
	c45.944-36.933,77.952-88.852,90.128-146.189c3.715-17.451,5.6-35.433,5.6-53.445C512,239.905,510.495,223.816,507.526,208.179z
	 M256,20.264c50.746,0,100.256,16.477,140.751,46.628l-64.4,52.724c-23.239-13.043-49.48-19.905-76.352-19.905
	c-61.933,0-117.53,36.511-142.556,92.184l-62.927-51.517C92.333,66.078,170.323,20.264,256,20.264z M20.264,256
	c0-34.014,7.029-66.617,20.879-97.108l64.865,53.103c-4.173,14.251-6.295,29.018-6.295,44.004c0,16.43,2.524,32.525,7.502,47.94
	l-64.412,52.727C28.04,325.39,20.264,290.847,20.264,256z M52.435,374.968l62.676-51.305c11.504,23.986,28.887,44.597,50.889,60.122
	c26.428,18.647,57.549,28.503,90.001,28.503c25.426,0,50.411-6.197,72.717-17.94l64.858,53.097
	c-40.189,29.014-87.486,44.293-137.577,44.293C171.95,491.736,94.709,447.204,52.435,374.968z M486.581,305.23
	c-10.645,50.13-37.776,95.756-76.72,129.358l-62.911-51.503c25.119-18.016,44.553-43.208,55.414-72.196
	c1.166-3.111,0.732-6.597-1.162-9.327c-1.893-2.73-5.004-4.359-8.327-4.359H271.536v-77.003h217.493
	c1.798,11.779,2.707,23.786,2.707,35.799C491.736,272.596,490.002,289.158,486.581,305.23z"/>
<g>
</g>
<g>
</g>
<g>
</g>
<g>
</g>
<g>
</g>
<g>
</g>
<g>
</g>
<g>
</g>
<g>
</g>
<g>
</g>
<g>
</g>
<g>
</g>
<g>
</g>
<g>
</g>
<g>
</g>
</svg>
