<?xml version="1.0" encoding="iso-8859-1"?>
<!-- Generator: Adobe Illustrator 19.0.0, SVG Export Plug-In . SVG Version: 6.00 Build 0)  -->
<svg version="1.1" id="Layer_1" xmlns="http://www.w3.org/2000/svg" xmlns:xlink="http://www.w3.org/1999/xlink" x="0px" y="0px"
	 viewBox="0 0 512 512" style="enable-background:new 0 0 512 512;" xml:space="preserve">
<circle style="fill:#ECE5DD;" cx="256.711" cy="256" r="247.916"/>
<path style="fill:#D9CBBD;" d="M256.714,8.084c-10.96,0-21.752,0.72-32.337,2.099C346.017,26.029,439.956,130.04,439.956,256
	s-93.939,229.971-215.579,245.817c10.585,1.379,21.377,2.099,32.337,2.099c136.921,0,247.916-110.996,247.916-247.916
	S393.634,8.084,256.714,8.084z"/>
<path style="fill:#CD2900;" d="M361.5,182.068c-24.404-34.874-62.855-54.877-105.5-54.877c-35.154,0-68.024,13.966-92.552,39.325
	l-5.646,5.839l-49.854-42.76l6.166-6.576c18.027-19.222,39.321-34.358,63.289-44.986C202.231,67.023,228.676,61.44,256,61.44
	c32.118,0,63.858,7.884,91.788,22.801c27.873,14.887,52.02,36.807,69.83,63.394l2.295,3.426c1.513,2.259,0.815,5.327-1.528,6.709
	l-48.543,28.613c-2.128,1.255-4.862,0.661-6.279-1.364L361.5,182.068z"/>
<path style="fill:#FFCE00;" d="M86.249,350.975C70.019,322.078,61.44,289.236,61.44,256c0-44.017,14.399-85.569,41.64-120.163
	l5.563-7.066l49.861,42.768l-4.942,6.474c-17.252,22.601-26.371,49.569-26.371,77.987c0,21.321,5.344,42.458,15.455,61.127
	l3.878,7.162l-55.873,34.527L86.249,350.975z"/>
<path style="fill:#40A459;" d="M256,450.56c-64.329,0-124.455-31.853-160.84-85.204l-5.082-7.453l55.882-34.536l4.677,6.637
	c24.179,34.317,63.568,54.804,105.363,54.804c34.715,0,68.514-14.371,92.729-39.427l5.647-5.843l49.805,42.718l-6.154,6.576
	c-18.03,19.266-39.339,34.438-63.334,45.094C309.837,444.964,283.36,450.56,256,450.56z"/>
<path style="fill:#1D81CE;" d="M353.677,340.357l4.927-6.473c7.925-10.41,14.186-21.923,18.617-34.227l-95.471-0.002
	c-2.613,0-4.731-2.118-4.731-4.731v-56.29c0-2.613,2.118-4.731,4.731-4.731h164.188c2.258,0,4.105,1.8,4.162,4.058l0.46,18.145
	c-0.022,43.902-14.375,85.362-41.509,119.896l-5.562,7.079L353.677,340.357z"/>
<path d="M458.103,255.794l-0.552-21.558c-0.112-4.383-3.697-7.878-8.081-7.878H277.558c-4.465,0-8.084,3.62-8.084,8.084v64.674
	c0,4.465,3.62,8.084,8.084,8.084l88.404,0.002c-19.728,42.342-62.559,70.061-109.961,70.061
	c-66.638,0-120.893-54.029-121.261-120.582c-0.359-64.967,51.254-119.17,116.167-121.84c5.641-0.232,11.224-0.077,16.721,0.443
	c2.363,0.223,4.699-0.631,6.377-2.309c0.046-0.046,0.094-0.094,0.14-0.14c4.762-4.762,1.888-12.993-4.816-13.634
	c-4.398-0.42-8.844-0.634-13.328-0.634c-38.72,0-73.746,16.102-98.75,41.954l-36.847-31.604
	C154.35,92.719,202.575,70.063,256,70.063c62.655,0,119.797,30.635,154.455,82.372l-41.889,24.69
	c-13.819-19.749-32.177-35.15-53.217-45.193c-3.046-1.454-6.684-0.792-9.07,1.594l-0.105,0.105
	c-3.884,3.884-2.825,10.493,2.133,12.857c20.618,9.829,38.319,25.498,50.868,45.762c2.313,3.736,7.187,4.938,10.978,2.708
	l55.733-32.851c1.865-1.099,3.211-2.901,3.737-5.001c0.526-2.101,0.188-4.323-0.94-6.172
	c-17.723-29.071-42.693-53.391-72.209-70.335C326.036,63.129,291.294,53.895,256,53.895C144.559,53.895,53.895,144.559,53.895,256
	c0,68.521,34.282,129.178,86.589,165.743c3.167,2.214,7.478,1.798,10.21-0.935l0.107-0.108c3.518-3.527,2.999-9.369-1.084-12.223
	c-18.566-12.981-34.664-29.258-47.433-47.981l41.304-25.526c24.895,35.333,66.002,58.462,112.413,58.462
	c38.07,0,73.537-15.784,98.93-42.057l36.803,31.565c-33.954,36.282-82.237,58.997-135.733,58.997
	c-25.53,0-49.867-5.185-72.031-14.539c-2.995-1.264-6.456-0.584-8.755,1.715l-0.122,0.122c-4.037,4.037-2.663,10.848,2.596,13.067
	c24.096,10.17,50.558,15.803,78.312,15.803c111.441,0,202.105-90.664,202.105-202.105
	C458.105,255.932,458.104,255.862,458.103,255.794z M93.767,346.753C78.683,319.893,70.063,288.937,70.063,256
	c0-43.3,14.879-83.191,39.792-114.828l36.853,31.609c-17.643,23.114-28.14,51.962-28.14,83.219c0,23.592,5.978,45.814,16.495,65.233
	L93.767,346.753z M402.27,370.675l-36.806-31.567c8.468-11.124,15.321-23.651,20.144-37.296c0.875-2.474,0.494-5.219-1.021-7.361
	c-1.516-2.143-3.976-3.417-6.601-3.417l-92.344-0.002v-48.505h155.949l0.346,13.576C441.915,299.295,427.09,339.087,402.27,370.675z
	"/>
<path d="M437.019,74.982C388.667,26.628,324.379,0,256,0S123.333,26.628,74.982,74.982C26.628,123.333,0,187.62,0,256
	s26.628,132.667,74.982,181.019C123.333,485.372,187.62,512,256,512s132.667-26.628,181.019-74.982
	C485.372,388.667,512,324.379,512,256S485.372,123.333,437.019,74.982z M256,495.832C123.756,495.832,16.168,388.244,16.168,256
	S123.756,16.168,256,16.168S495.832,123.756,495.832,256S388.244,495.832,256,495.832z"/>
<g>
</g>
<g>
</g>
<g>
</g>
<g>
</g>
<g>
</g>
<g>
</g>
<g>
</g>
<g>
</g>
<g>
</g>
<g>
</g>
<g>
</g>
<g>
</g>
<g>
</g>
<g>
</g>
<g>
</g>
</svg>
