<svg xmlns="http://www.w3.org/2000/svg" viewBox="0 0 512 512"><g fill="#e6e6e6"><path d="M376.5 317c-9 12.5-19.4 25-30.8 36.5l-39.4-118.9H423.1s-16.5 41-46.6 82.5z"/><path d="M376.5 317c30.1-41.4 46.6-82.4 46.6-82.4H306.3l-43.8-132.3h207.8a31.6 31.6 0 0 1 31.7 31.6v332.4a31.6 31.6 0 0 1-31.7 31.7H281.4l82.9-88.3-18.6-56.2c11.4-11.4 21.8-24 30.8-36.4z"/></g><path fill="#3a5bbc" d="M364.3 409.7L281.4 498 252 409.7z"/><path d="M345.7 353.5l18.6 56.2H41.7A31.6 31.6 0 0 1 10 378.1V45.7A31.6 31.6 0 0 1 41.7 14h191.6l29.2 88.3 43.8 132.3 39.4 119z" fill="#518ef8"/><path d="M153.5 286.1A74.6 74.6 0 1 1 206.2 159a10 10 0 0 1-14.2 14.2 54.5 54.5 0 1 0 15 48.5h-53.5a10 10 0 0 1 0-20H218a10 10 0 0 1 10 10c0 41.1-33.4 74.5-74.5 74.5z" fill="#fff"/><path d="M470.3 92.2H269.7l-27-81.3a10 10 0 0 0-9.4-6.9H41.7C18.7 4 0 22.7 0 45.7V378c0 23 18.7 41.7 41.7 41.7h203.1l27 81.3a10 10 0 0 0 9.6 6.9h189c23 0 41.6-18.7 41.6-41.7V134c0-23-18.7-41.7-41.7-41.7zM20.1 378.1V45.7c0-12 9.6-21.6 21.6-21.6H226l110 332.3 14.4 43.3H41.7c-12 0-21.6-9.7-21.6-21.6zm387.5-133.5a442 442 0 0 1-31.7 55.8 859.6 859.6 0 0 1-22.2-28.9 10 10 0 1 0-16.2 11.8c.4.6 10.4 14.4 26.3 34-4.6 6-9.2 11.7-14 17l-29.6-89.7h87.4zM266 419.8h75.2l-55.5 59-19.7-59zm226 46.5c0 12-9.6 21.6-21.6 21.6H304.6l67-71.3a9.9 9.9 0 0 0 2.2-10l-16.7-50.4a312 312 0 0 0 19.8-23 803 803 0 0 0 45.8 50.2c2 2 4.5 3 7 3s5.2-1 7.2-3c3.9-4 3.9-10.3 0-14.2a795.9 795.9 0 0 1-47.7-52.6c21.2-30.6 35-59.6 40.5-72h21.5a10 10 0 0 0 0-20H385v-18a10 10 0 0 0-20 0v18h-51.5l-37.1-112.3h194c11.9 0 21.5 9.7 21.5 21.6v332.4z" fill="#333"/></svg>
