<svg xmlns="http://www.w3.org/2000/svg" viewBox="0 0 512 512"><path d="M185.8 105.7h277a38.7 38.7 0 0 1 38.7 38.7v318.5a38.7 38.7 0 0 1-38.6 38.7H280.5l-94.7-396z" fill="#fff"/><path fill="#0084ff" d="M361.1 406.3l-80.6 95.2-31.7-95.2z"/><path d="M361.1 406.3h-312a38.7 38.7 0 0 1-38.7-38.7V49.1a38.7 38.7 0 0 1 38.7-38.7h182.4l129.6 396z" fill="#10bafc"/><path d="M462.9 95.2H270.3l-28.8-88a10.5 10.5 0 0 0-10-7.2H49.1C22.1 0 0 22 0 49.1v318.5c0 27.1 22 49.2 49.1 49.2h192.2l29.3 88c1.4 4.3 5.4 7.2 9.9 7.2h182.4c27 0 49.1-22 49.1-49.1V144.4c0-27.1-22-49.2-49.1-49.2zm-442 272.4V49.1A28.3 28.3 0 0 1 49.1 21H224l122.7 375H49.1A28.3 28.3 0 0 1 21 367.6zm390.5-126.2a273 273 0 0 1-31.1 51 285.2 285.2 0 0 1-31.1-51h62.2zm-85 0a268 268 0 0 0 24 45.1c4.5 6.9 10 14.5 16.3 22.5-6 6.7-12.6 13.5-19.8 20.2l-28.8-87.8h8.3zm-63.1 175.4h75.3l-54 63.8-21.3-63.8zm227.8 46a28.3 28.3 0 0 1-28.2 28.3H303l66-77.8a10.4 10.4 0 0 0 1.9-10.9L354 351c9.8-8.5 18.5-17.2 26.3-25.8 17.6 19.4 40.5 40 69.8 57.9a10.4 10.4 0 0 0 14.4-3.5c3-4.9 1.5-11.3-3.5-14.3a297.9 297.9 0 0 1-67-56.2 282.2 282.2 0 0 0 40.2-67.6H465a10.4 10.4 0 0 0 0-21h-75v-17.7a10.4 10.4 0 0 0-20.8 0v17.8h-58l-34-104.4h185.7a28.3 28.3 0 0 1 28.2 28.3v318.5z"/><path d="M147 286.4a77 77 0 0 0 77-77c0-5.7-4.6-10.4-10.4-10.4h-59.2a10.4 10.4 0 1 0 0 21h47.8a56.2 56.2 0 1 1-18.8-53.2 10.4 10.4 0 1 0 13.6-16 77 77 0 1 0-50 135.6zM201.6 351.4H197a10.4 10.4 0 0 0 0 21h4.7a10.4 10.4 0 0 0 0-21zM163.1 351.4H61.6a10.4 10.4 0 0 0 0 21h101.5a10.4 10.4 0 0 0 0-21z"/></svg>
