<svg xmlns="http://www.w3.org/2000/svg" viewBox="0 0 512 512"><path d="M479 96H262.8l-22.5 87.1-8 57.2 43.3 120.9 7 146.6H479a33 33 0 0 0 32.9-33V129A33 33 0 0 0 479 96z" fill="#e6e6e6"/><path fill="#3a5bbc" d="M368.7 416l-86.3 91.8L252 416l12.4-33.5z"/><path d="M469.6 244.2v-20.9h-79.3v-29.2h-21v29.2H298v20.9h116a458.7 458.7 0 0 1-33 58c-14.2-17.6-23.1-30-23.2-30l-6.2-8.5-16.9 12.2 6.2 8.5c.4.6 10.8 15 27.3 35.3a800.7 800.7 0 0 1-42.6 47l14.7 14.7a861 861 0 0 0 41.4-45.3 836.8 836.8 0 0 0 47.9 52.5l7.4 7.4 14.7-14.8-7.4-7.4a828.1 828.1 0 0 1-49.6-54.8c22.1-31.8 36.5-62 42.2-74.8h32.8z" fill="gray"/><path d="M349.3 357.5l19.4 58.5H32.9A33 33 0 0 1 0 383V37.2a33 33 0 0 1 33-33h199.3L262.7 96l45.7 137.7 41 123.8z" fill="#518ef8"/><path d="M149.3 287.4A77.7 77.7 0 1 1 204.1 155l-14.7 14.7a56.8 56.8 0 1 0 15.6 50.5h-55.7v-20.8h77.6v10.4a77.7 77.7 0 0 1-77.6 77.6z" fill="#fff"/></svg>
