<svg xmlns="http://www.w3.org/2000/svg" viewBox="0 0 512 512"><path d="M256 0C114.8 0 0 114.8 0 256s114.8 256 256 256 256-114.8 256-256S397.2 0 256 0z" fill="#303c42"/><path d="M21.3 256A235 235 0 0 1 204.1 27.3l147.6 442.8a233 233 0 0 1-95.7 20.6A235 235 0 0 1 21.3 256z" fill="#42a5f5"/><g fill="#fff"><path d="M392.5 192c-5 17-19.6 45-39.6 70.4a142.9 142.9 0 0 1-23-31.7c-2.2-5.5-8.5-8.1-14-6-5.4 2.3-8 8.5-5.8 14 4.3 10.5 15.6 25.1 28.6 40-6.9 7.2-14 14-21.8 19.7L281.5 192h111z"/><path d="M371 460.4l-47.1-141.2 2.3-1.2c9.3-6.6 18.2-15 26.7-23.9a980.5 980.5 0 0 0 45.2 44.4 10.6 10.6 0 0 0 15.1-.6c4-4.4 3.7-11.1-.7-15.1a973 973 0 0 1-45.4-44.7c24.3-30 42.4-64.3 47.3-86.1h23a10.7 10.7 0 1 0 0-21.3h-74.7V160a10.7 10.7 0 1 0-21.4 0v10.7h-67l-49-147.1c10-1.3 20.3-2.3 30.7-2.3A235 235 0 0 1 490.7 256c0 87.6-48.4 164-119.8 204.4zM245.3 245.3h-74.6a10.7 10.7 0 1 0 0 21.4h63a64.1 64.1 0 0 1-127-10.7 64 64 0 0 1 105.5-48.6 10.7 10.7 0 1 0 14-16.3A85.4 85.4 0 1 0 256 256c0-5.9-4.8-10.7-10.7-10.7z"/></g><path d="M53.5 374A234.6 234.6 0 0 0 256 490.7c34 0 66.4-7.5 95.7-20.6l-21.4-64.3A233 233 0 0 1 53.5 374zM415.9 84.7c16 27.4 26.7 58.3 30.5 91.3 1 1.6 1.6 3.3 1.6 5.3 0 1.5-.3 3-.9 4.2.4 5.7.9 11.4.9 17.2 0 44.5-12.7 86-34.4 121.6a10.5 10.5 0 0 1-8.3 17c-.9 0-1.8-.2-2.7-.5a236.3 236.3 0 0 1-53.8 53.2l22.1 66.4a233.8 233.8 0 0 0 45-375.7z" opacity=".1"/><linearGradient id="a" gradientUnits="userSpaceOnUse" x1="-45.6" y1="639.6" x2="-23.8" y2="629.4" gradientTransform="matrix(21.3333 0 0 -21.3333 996.3 13791.7)"><stop offset="0" stop-color="#fff" stop-opacity=".2"/><stop offset="1" stop-color="#fff" stop-opacity="0"/></linearGradient><path d="M256 0C114.8 0 0 114.8 0 256s114.8 256 256 256 256-114.8 256-256S397.2 0 256 0z" fill="url(#a)"/></svg>
