<?xml version="1.0" encoding="iso-8859-1"?>
<!-- Generator: Adobe Illustrator 19.0.0, SVG Export Plug-In . SVG Version: 6.00 Build 0)  -->
<svg version="1.1" id="Layer_1" xmlns="http://www.w3.org/2000/svg" xmlns:xlink="http://www.w3.org/1999/xlink" x="0px" y="0px"
	 viewBox="0 0 504.224 504.224" style="enable-background:new 0 0 504.224 504.224;" xml:space="preserve">
<path style="fill:#B7854E;" d="M495.065,450.956l-98.462-98.462c0.788-3.151,0.788-6.695,0.788-10.24
	c0-30.326-24.812-55.138-55.138-55.138s-55.138,24.812-55.138,55.138s24.812,55.138,55.138,55.138c3.545,0,7.089-0.394,10.24-0.788
	l98.068,98.462c12.209,12.209,31.902,12.209,44.111,0C507.274,482.858,507.274,463.165,495.065,450.956z M495.065,450.956
	l-98.462-98.462c0.788-3.151,0.788-6.695,0.788-10.24c0-30.326-24.812-55.138-55.138-55.138s-55.138,24.812-55.138,55.138
	s24.812,55.138,55.138,55.138c3.545,0,7.089-0.394,10.24-0.788l98.068,98.462c12.209,12.209,31.902,12.209,44.111,0
	C507.274,482.858,507.274,463.165,495.065,450.956z"/>
<path style="fill:#BE8D54;" d="M291.446,321.774c11.422,8.665,24.025,18.905,31.508,29.538
	c10.24,14.178,18.117,28.357,25.994,43.717l1.182,2.363l2.363-0.394l9.846,9.846l-8.271-14.966
	c-8.271-15.36-15.754-29.932-26.388-44.505c-8.271-11.422-22.055-22.449-33.871-31.508
	C293.415,317.836,292.234,319.805,291.446,321.774z M423.385,449.774c-9.058-18.511-15.36-35.052-21.268-50.018
	c-11.422-29.932-20.086-51.594-40.96-61.046c-11.028-4.726-16.935-5.514-20.086-1.575c-5.12,5.908,1.182,18.117,18.511,44.898
	l37.415,58.289c0.394,0.394,0.394,0.788,0.788,0.788c1.182,0.788,2.363,0.788,3.545,0c1.575-0.788,1.969-2.757,0.788-4.332
	l-37.415-58.289c-5.908-9.058-21.268-33.477-18.905-37.415c0,0,1.969-1.182,12.603,3.545c18.511,8.271,26.388,27.963,37.809,57.502
	c5.514,14.572,12.209,31.508,21.268,50.412c3.151,6.695,5.514,11.815,7.483,16.542l11.028,11.028
	C434.018,473.405,430.08,463.953,423.385,449.774z M465.132,497.036c-12.209-23.237-24.812-47.262-30.326-61.834
	c-1.575-3.938-2.757-8.271-4.332-12.603c-6.695-19.692-14.966-43.717-30.326-66.166l-3.545-3.545v-1.182
	c-10.24-13.391-23.237-25.994-40.172-36.234h-13.785c53.169,24.812,70.105,74.437,81.92,109.095
	c1.575,4.726,3.151,8.665,4.332,12.997c5.514,14.966,18.117,39.385,30.326,62.622c0.394,0.394,0.394,0.788,0.788,1.575
	c2.757,1.182,5.514,1.969,8.665,2.363L465.132,497.036L465.132,497.036z M331.618,396.605c2.363,0.394,5.12,0.788,7.877,0.788
	c-12.209-23.237-25.206-44.898-51.2-62.622c-0.394,2.363-0.394,4.726-0.788,7.483C308.775,357.614,320.591,376.125,331.618,396.605z
	 M390.302,315.473H384c3.545,2.363,6.695,5.12,9.846,7.877C393.058,320.593,391.877,317.836,390.302,315.473z M481.674,473.011
	c-7.089-18.905-9.058-33.083-5.514-40.566l-4.726-4.726c-4.332,7.483-5.514,21.268,4.332,47.655
	c3.151,7.877,6.695,16.935,10.634,25.994c1.969-0.788,3.938-1.969,5.514-3.545C488.369,489.947,485.218,481.676,481.674,473.011z
	 M503.729,468.679c-0.394-3.938-1.969-7.877-3.938-11.422c-3.151,7.089-3.151,18.511,0,31.902c2.363-3.938,3.938-8.665,4.332-12.997
	C503.729,473.405,503.729,471.042,503.729,468.679z M482.855,502.55c-17.329-37.809-33.083-78.375-44.505-108.308l-11.028-11.028
	l2.757,7.089c14.966,38.991,30.326,78.375,46.474,113.822C478.917,503.731,480.886,503.338,482.855,502.55z"/>
<path style="fill:#CC9357;" d="M500.185,488.371c6.695-11.815,5.12-27.175-5.12-37.415l-98.068-98.462
	c0.788-3.151,0.788-6.695,0.788-10.24c0-30.326-24.812-55.138-55.138-55.138c-12.209,0-23.237,3.938-32.689,10.634
	c-6.695,9.452-10.634,20.874-10.634,33.083c0,30.326,24.812,55.138,55.138,55.138c3.545,0,7.089-0.394,10.24-0.788l98.068,98.462
	C473.009,493.491,488.369,495.067,500.185,488.371z"/>
<path style="fill:#D49D5E;" d="M313.108,367.067c4.726,5.12,10.24,9.452,16.148,12.603c-7.483-12.209-16.148-24.025-27.963-34.658
	c1.575,6.695,4.726,12.603,8.665,18.117C309.957,363.128,313.108,367.067,313.108,367.067z M481.674,473.011
	c-7.089-18.905-9.058-33.083-5.514-40.566l-4.726-4.726c-4.332,7.483-5.514,21.268,4.332,47.655
	c1.969,5.12,4.332,11.028,6.695,16.935c2.363,0,4.726,0,6.695-0.394C486.794,486.008,484.431,479.313,481.674,473.011z
	 M503.729,468.679c-0.394-3.938-1.969-7.877-3.938-11.422c-3.151,6.695-3.151,18.117-0.394,31.114c0,0,0.394,0,0.394-0.394
	c2.363-3.938,3.545-8.665,3.938-12.997V468.679z M299.323,328.076c9.058,7.089,17.723,15.36,23.631,23.237
	c8.271,11.028,14.572,22.055,20.874,33.477c2.363,0.394,5.12,0.788,7.877,0.788c-7.089-12.997-14.178-25.6-23.237-38.203
	c-7.089-9.452-17.723-18.905-27.963-26.782C299.717,322.956,299.717,325.319,299.323,328.076z M438.351,394.242l-11.028-11.028
	l2.757,7.089c12.603,33.083,25.994,66.954,39.778,97.674c2.757,1.575,5.514,2.757,8.271,3.151
	C462.375,456.864,448.591,421.418,438.351,394.242z M390.302,315.473H384c3.545,2.363,6.695,5.12,9.846,7.877
	C393.058,320.593,391.877,317.836,390.302,315.473z M435.2,434.808c-1.575-3.938-2.757-8.271-4.332-12.603
	c-6.695-19.692-14.966-43.717-30.326-66.166l-3.545-3.545v-1.182c-10.24-13.391-23.237-25.994-40.172-36.234h-14.178
	c53.169,24.812,70.105,74.437,81.92,109.095c1.575,4.726,3.151,8.665,4.332,12.997c1.969,5.908,5.514,13.391,9.452,21.662
	l14.178,14.178C445.046,458.439,438.351,444.655,435.2,434.808L435.2,434.808z M361.157,338.71
	c-11.028-4.726-16.935-5.514-20.086-1.575c-5.12,5.908,1.182,18.117,18.511,44.898l1.969,3.151l3.151-0.394l11.422,11.422
	l-11.422-17.723c-5.908-9.058-21.268-33.477-18.905-37.415c0,0,1.969-1.182,12.603,3.545c18.511,8.271,26.388,27.963,37.809,57.502
	c2.757,7.483,5.908,15.36,9.452,23.631l12.209,12.209c-6.302-14.178-11.422-26.782-15.754-38.203
	C390.695,369.824,382.031,348.162,361.157,338.71z"/>
<path style="fill:#B4E7F8;" d="M204.8,39.387c91.372,0,165.415,74.043,165.415,165.415S296.172,370.218,204.8,370.218
	S39.385,296.174,39.385,204.802S113.428,39.387,204.8,39.387z"/>
<path style="fill:#A6D5E5;" d="M204.8,39.387c-49.625,0-94.129,22.055-124.455,56.714c29.145-25.6,66.954-40.96,108.702-40.96
	c91.372,0,165.415,74.043,165.415,165.415c0,41.748-15.36,79.557-40.96,108.702c34.658-30.326,56.714-74.831,56.714-124.455
	C370.215,113.43,296.172,39.387,204.8,39.387z"/>
<path style="fill:#3C5663;" d="M204.8,0.002C91.766,0.002,0,91.768,0,204.802s91.766,204.8,204.8,204.8s204.8-91.766,204.8-204.8
	S317.834,0.002,204.8,0.002z M204.8,366.279c-89.009,0-161.477-72.468-161.477-161.477S115.791,43.325,204.8,43.325
	s161.477,72.468,161.477,161.477S293.809,366.279,204.8,366.279z M204.8,0.002C91.766,0.002,0,91.768,0,204.802
	s91.766,204.8,204.8,204.8s204.8-91.766,204.8-204.8S317.834,0.002,204.8,0.002z M204.8,366.279
	c-89.009,0-161.477-72.468-161.477-161.477S115.791,43.325,204.8,43.325s161.477,72.468,161.477,161.477
	S293.809,366.279,204.8,366.279z"/>
<g>
</g>
<g>
</g>
<g>
</g>
<g>
</g>
<g>
</g>
<g>
</g>
<g>
</g>
<g>
</g>
<g>
</g>
<g>
</g>
<g>
</g>
<g>
</g>
<g>
</g>
<g>
</g>
<g>
</g>
</svg>
