<svg xmlns="http://www.w3.org/2000/svg" viewBox="0 0 90 90"><path d="M24.012 33.588c.535 7.65-3.611 14.173-9.264 14.57-5.651.397-10.667-5.483-11.202-13.135-.535-7.65 3.611-14.174 9.264-14.571 5.652-.396 10.668 5.485 11.202 13.136zM62.938 1.874C57.447.473 51.464 5.363 49.576 12.795c-1.895 7.432 1.023 14.592 6.514 15.993 5.49 1.4 11.476-3.488 13.365-10.921 2.459-9.673-5.202-15.659-6.517-15.993zm12.874 25.051c-5.775.086-10.359 5.579-10.232 14.088.127 8.508 4.904 12.387 10.685 12.301 5.772-.086 10.358-4.103 10.233-12.614-.168-11.074-9.303-13.795-10.686-13.775zM33.965 0c-5.496 0-9.951 6.16-9.951 13.756s4.455 13.753 9.951 13.753 9.952-6.157 9.952-13.753S39.461 0 33.965 0zm-1.272 42.72c-3.175 4.56-6.775 9.011-13.762 14.843-6.988 5.832-9.952 9.858-9.952 15.795 0 5.936 3.388 15.795 13.022 15.795s14.292-2.121 21.915-2.121c7.623 0 12.707 2.969 22.339 2.969 9.635 0 13.658-9.117 13.658-15.053 0-5.937-1.672-9.297-9.391-16.072-4.945-4.346-9.138-7.885-15.702-17.002-3.245-4.508-6.987-5.088-10.904-5.088-3.917-.001-8.046 1.377-11.223 5.934z" fill="#2f7fda"/></svg>
