<svg xmlns="http://www.w3.org/2000/svg" viewBox="0 0 512 512"><circle cx="256.7" cy="256" r="247.9" fill="#ece5dd"/><path d="M256.7 8c-11 0-21.7.8-32.3 2.2a248 248 0 0 1 0 491.6A248 248 0 1 0 256.7 8.1z" fill="#d9cbbd"/><path d="M361.5 182A127.2 127.2 0 0 0 256 127.3c-35.2 0-68 14-92.6 39.3l-5.6 5.9-49.9-42.8 6.2-6.6a194.3 194.3 0 0 1 303.5 24.6l2.3 3.5c1.5 2.2.8 5.3-1.5 6.7l-48.6 28.6a4.7 4.7 0 0 1-6.2-1.4l-2.1-3z" fill="#cd2900"/><path d="M86.2 351a194.3 194.3 0 0 1 16.9-215.2l5.5-7 49.9 42.7-5 6.5a128.7 128.7 0 0 0-11 139.1l4 7.2-55.8 34.5-4.5-7.8z" fill="#ffce00"/><path d="M256 450.6a194.7 194.7 0 0 1-160.8-85.2l-5.1-7.5 55.9-34.5 4.6 6.6A129.1 129.1 0 0 0 256 384.8c34.7 0 68.5-14.4 92.7-39.4l5.7-5.9 49.8 42.8-6.2 6.5a194.3 194.3 0 0 1-142 61.8z" fill="#40a459"/><path d="M353.7 340.4l4.9-6.5a128 128 0 0 0 18.6-34.2h-95.4a4.7 4.7 0 0 1-4.8-4.8v-56.3c0-2.6 2.1-4.7 4.8-4.7h164.1c2.3 0 4.1 1.8 4.2 4l.5 18.2c0 44-14.4 85.4-41.5 119.9l-5.6 7-49.8-42.6z" fill="#1d81ce"/><path d="M458.1 255.8l-.5-21.6a8 8 0 0 0-8.1-7.8h-172a8 8 0 0 0-8 8v64.7a8 8 0 0 0 8 8.1H366a121.4 121.4 0 0 1-231.2-50.5 121.6 121.6 0 0 1 132.8-121.4 8 8 0 0 0 6.4-2.3l.1-.2a8 8 0 0 0-4.8-13.6 137 137 0 0 0-112 41.3L120.4 129c34-36.2 82.2-58.8 135.6-58.8 62.7 0 119.8 30.6 154.5 82.3l-42 24.7a136.8 136.8 0 0 0-53.2-45.2 8 8 0 0 0-9 1.6l-.1.1a8 8 0 0 0 2.1 12.9 121 121 0 0 1 50.9 45.8 8 8 0 0 0 11 2.7l55.7-32.9a8 8 0 0 0 2.8-11.2 202.1 202.1 0 1 0-288.2 270.8 8 8 0 0 0 10.2-.9l.1-.1a8 8 0 0 0-1-12.2 187.5 187.5 0 0 1-47.5-48l41.3-25.5a137.4 137.4 0 0 0 211.3 16.4l36.8 31.5A185.5 185.5 0 0 1 184 427.4a8 8 0 0 0-8.8 1.7l-.1.1a8 8 0 0 0 2.6 13.1A202.3 202.3 0 0 0 458 256v-.2zm-364.3 91a185 185 0 0 1 16-205.6l37 31.6A136.7 136.7 0 0 0 135 321.2l-41.3 25.6zm308.5 23.9L365.5 339a136.8 136.8 0 0 0 20.1-37.3A8 8 0 0 0 378 291h-92.4v-48.5h156l.3 13.6a185 185 0 0 1-39.6 114.6z"/><path d="M437 75C388.7 26.6 324.4 0 256 0S123.3 26.6 75 75C26.6 123.3 0 187.6 0 256s26.6 132.7 75 181c48.3 48.4 112.6 75 181 75s132.7-26.6 181-75c48.4-48.3 75-112.6 75-181s-26.6-132.7-75-181zM256 495.8C123.8 495.8 16.2 388.2 16.2 256S123.8 16.2 256 16.2 495.8 123.8 495.8 256 388.2 495.8 256 495.8z"/></svg>
