<svg version="1" xmlns="http://www.w3.org/2000/svg" viewBox="0 0 512 512"><path d="M410 448a245 245 0 0 1-371-75l80-66a146 146 0 0 0 211 75l80 66z" fill="#28b446"/><path d="M498 210a246 246 0 0 1-88 238l-80-66c29-17 51-43 63-75H261v-97h237z" fill="#518ef8"/><path d="M413 67l-80 65a146 146 0 0 0-216 77l-79-66a246 246 0 0 1 375-76z" fill="#f14336"/><path d="M119 307l-80 66a245 245 0 0 1-1-230l80 66a146 146 0 0 0 1 98z" fill="#fbbb00"/><path d="M508 208c-1-5-6-8-10-8H261c-5 0-10 4-10 10v97c0 6 5 10 10 10h116a137 137 0 0 1-121 75 137 137 0 0 1-129-180 136 136 0 0 1 201-71c4 2 8 2 12-1l79-65a10 10 0 0 0 0-16 256 256 0 1 0-3 397 257 257 0 0 0 92-248zM256 20c51 0 100 17 141 47l-65 53a156 156 0 0 0-219 72l-62-52C92 66 170 20 256 20zM20 256c0-34 7-67 21-97l65 53a156 156 0 0 0 1 92l-64 53c-15-32-23-66-23-101zm32 119l63-51a156 156 0 0 0 214 70l65 53a236 236 0 0 1-341-72zm435-70c-11 50-38 96-77 130l-63-52c25-18 45-43 55-72a10 10 0 0 0-9-14H272v-77h217a238 238 0 0 1-2 85z" fill="#333"/></svg>
