<svg xmlns="http://www.w3.org/2000/svg" viewBox="0 0 512 512"><path d="M506.3 202.3a16.7 16.7 0 0 0-16.3-13H272.7c-9.2 0-16.7 7.4-16.7 16.6v100.2c0 9.2 7.5 16.7 16.7 16.7h85.8a122.5 122.5 0 0 1-208.4-5.4l-.1-.2-.2-.2a121.7 121.7 0 0 1 0-121.8l.2-.4v-.2a122.5 122.5 0 0 1 192.5-25c6.5 6.4 17 6.4 23.6 0l70.8-70.9a16.7 16.7 0 0 0 0-23.6A254.6 254.6 0 0 0 256 0 256.3 256.3 0 0 0 0 256c0 141.7 115.4 256 256 256a256.2 256.2 0 0 0 250.3-309.7zM256 33.3a221 221 0 0 1 145 54l-47.4 47.4a155.7 155.7 0 0 0-223.4 29.4l-58-33.5A222.5 222.5 0 0 1 256 33.4zM33.4 256c0-34.6 8-67.3 22-96.5l58 33.5a154.9 154.9 0 0 0 0 126l-58 33.5c-14-29.2-22-62-22-96.5zM256 478.6a222.5 222.5 0 0 1-183.8-97.2l58-33.5A155.7 155.7 0 0 0 319 398.5l33.5 58a221.5 221.5 0 0 1-96.5 22.1zm217.7-176.1v.2a221.4 221.4 0 0 1-92.3 137l-33.5-58a155.7 155.7 0 0 0 53.5-69.6 16.7 16.7 0 0 0-15.6-22.7h-96.4v-66.8H476a220.5 220.5 0 0 1-2.4 79.9z" fill="#4285f4"/></svg>
