<svg xmlns="http://www.w3.org/2000/svg" viewBox="0 0 500 500" width="500" height="500"><path d="M450.3783 112.4046c4.0106-9.2472 8.5663-33.4293-24.8423-54.1743-30.6693-19.0441-89.1154-35.107-171.3518-33.143S107.8714 50.4843 68.27 83.7762c-84.04 70.65-26.6853 125.93 14.9 152.9349 32.7889 21.293 162.7855 66.586 186.7971 71.6324s55.2266 20.1858 55.2266 42.8949-33.6292 39.6488-71.9439 43.5768-135.8666-8.5926-166.7052-17.9217-48.3946 1.2318-52.566 14.8938c-3.68 12.05-3.79 30.5106 31.54 47.2185s170.1832 50.5742 275.4448 29.2149 132.1545-75.37 133.8678-112.195-23.4665-80.7706-86.2081-109.74-142.72-45.1725-163.8758-53.2742-50.1258-18.4127-48.724-44.436 34.343-37.071 44.8562-39.7716 46.4137-9.6564 93.2947-4.5827 62.7524 13.4778 84.4948 19.3948c30.371 8.2652 47.6987-1.9641 51.7093-11.2114z" fill="#ff7118"/></svg>
