<svg xmlns="http://www.w3.org/2000/svg" viewBox="0 0 500 500"><path fill-rule="evenodd" clip-rule="evenodd" fill="#445588" d="M77.37 92.08s16.13 16.13 19.36 32.27v45.18c0 12.91-6.45 35.49-6.45 51.63 0 19.36 3.23 25.81 6.45 35.49 3.23 9.68 3.23 9.68 3.23 25.81s-3.23 77.44-3.23 77.44l-3.23 48.4 9.68 22.59 12.91-12.91s3.23 9.68 9.68 19.36c6.45 9.68 32.27 19.36 32.27 19.36l32.27 9.68 103.26-41.95s12.91 9.68 22.59 12.91c9.68 3.23 41.95 19.36 58.08 22.59s25.81 6.45 38.72 6.45 25.81-3.23 38.72-9.68c12.91-3.23 29.04-9.68 29.04-9.68l6.45-38.72-77.44-51.63-16.13 12.91s-6.45-54.86-9.68-83.9c-3.23-29.04-9.68-67.76-9.68-67.76l9.68-6.45s-6.45-51.63-9.68-64.54c0-12.91 6.45-45.18 6.45-51.63 0-6.45 3.23-25.81 3.23-25.81V53.36l-22.59-9.68-25.81 9.68L290.34 34l-41.95 22.59 3.23 25.81h70.99l29.04 19.36v19.36l-9.68 9.68s-3.23 32.27-3.23 54.86c-3.23 22.59-3.23 48.4-6.45 74.22-3.23 32.27-9.68 61.31-19.36 87.12 0 0-38.72 22.59-58.08 32.27-29.04 9.68-54.86 9.68-54.86 9.68l-45.18-19.36c-6.45-41.95-12.91-77.44-16.13-106.48-3.23-9.68-3.23-12.91 0-25.81 0-9.68 6.45-45.18 6.45-45.18l-9.68-9.68s6.45-38.72 9.68-51.63c3.23-12.91 3.23-25.81 6.45-35.49 0-9.68 3.23-19.36 3.23-19.36l-6.45-22.59s-25.81-9.68-38.72-12.91C99.96 37.23 83.83 34 83.83 34H58.02c-9.68 0-25.81 3.23-25.81 3.23L12.84 56.59s3.23 9.68 6.45 12.91l3.23 6.45 9.68 3.23 12.91 16.13s12.91 0 22.59-3.23c-.01 3.23 9.67 0 9.67 0"/></svg>
