<svg height="640" viewBox="-52 0 480 480" width="640" xmlns="http://www.w3.org/2000/svg"><path d="M48 48h320v424H48zm0 0" fill="#ffeb99"/><path d="M8 48h40v424H8zm0 0" fill="#9f886a"/><path d="M128 80h160v96H128zm0 0" fill="#ffda44"/><path d="M8 8v40h344V8zm0 0" fill="#605240"/><path d="M16 8h336v16H16zm0 0" fill="#3c3328"/><path d="M8 48h16v424H8zm0 0" fill="#504435"/><g fill="#231f20"><path d="M296 72H120v112h176zm-16 96H136V88h144zm0 0"/><path d="M152 104h112v16H152zm0 0M152 136h32v16h-32zm0 0M200 136h64v16h-64zm0 0"/><path d="M376 16V0H0v480h376V40h-16V16zM16 464V56h24v408zm344 0H56V56h304zM16 40V16h328v24zm0 0"/><path d="M88 352v-48h48v48h16v-72c0-22.089844-17.910156-40-40-40s-40 17.910156-40 40v72zm24-96c13.253906 0 24 10.746094 24 24v8H88v-8c0-13.253906 10.746094-24 24-24zm0 0M248 272c0-17.671875-14.328125-32-32-32h-48v112h48c13.34375.058594 25.3125-8.203125 29.984375-20.703125 4.675781-12.496094 1.066406-26.585937-9.039063-35.296875C243.9375 289.984375 247.972656 281.226562 248 272zm-16 48c0 8.835938-7.164062 16-16 16h-32v-32h32c8.835938 0 16 7.164062 16 16zm-48-32v-32h32c8.835938 0 16 7.164062 16 16s-7.164062 16-16 16zm0 0M264 280v32c0 22.089844 17.910156 40 40 40s40-17.910156 40-40h-16c0 13.253906-10.746094 24-24 24s-24-10.746094-24-24v-32c0-13.253906 10.746094-24 24-24s24 10.746094 24 24h16c0-22.089844-17.910156-40-40-40s-40 17.910156-40 40zm0 0"/></g></svg>
