<svg version="1.1" id="Capa_1" xmlns="http://www.w3.org/2000/svg" xmlns:xlink="http://www.w3.org/1999/xlink" x="0px" y="0px" width="90px" height="90px" viewBox="0 0 90 90" style="enable-background:new 0 0 90 90;" xml:space="preserve">
  <path id="Baidu" d="M24.012,33.588c0.535,7.65-3.611,14.173-9.264,14.57C9.097,48.555,4.081,42.675,3.546,35.023
    c-0.535-7.65,3.611-14.174,9.264-14.571C18.462,20.056,23.478,25.937,24.012,33.588z M62.938,1.874
    c-5.491-1.401-11.474,3.489-13.362,10.921c-1.895,7.432,1.023,14.592,6.514,15.993c5.49,1.4,11.476-3.488,13.365-10.921
    C71.914,8.194,64.253,2.208,62.938,1.874z M75.812,26.925c-5.775,0.086-10.359,5.579-10.232,14.088
    c0.127,8.508,4.904,12.387,10.685,12.301c5.772-0.086,10.358-4.103,10.233-12.614C86.33,29.626,77.195,26.905,75.812,26.925z
     M33.965,0c-5.496,0-9.951,6.16-9.951,13.756c0,7.596,4.455,13.753,9.951,13.753c5.496,0,9.952-6.157,9.952-13.753
    C43.917,6.16,39.461,0,33.965,0z M32.693,42.72c-3.175,4.56-6.775,9.011-13.762,14.843c-6.988,5.832-9.952,9.858-9.952,15.795
    c0,5.936,3.388,15.795,13.022,15.795c9.634,0,14.292-2.121,21.915-2.121c7.623,0,12.707,2.969,22.339,2.969
    c9.635,0,13.658-9.117,13.658-15.053c0-5.937-1.672-9.297-9.391-16.072c-4.945-4.346-9.138-7.885-15.702-17.002
    c-3.245-4.508-6.987-5.088-10.904-5.088C39.999,36.785,35.87,38.163,32.693,42.72z" style="fill: rgb(49, 122, 206);">
  </path>
</svg>
