<svg xmlns="http://www.w3.org/2000/svg" width="512" height="512" viewBox="0 0 93.038 93.038"><path d="M46.547 75.521c0 1.639-.947 3.128-2.429 3.823-.573.271-1.187.402-1.797.402-.966 0-1.923-.332-2.696-.973l-23.098-19.14H4.225C1.892 59.635 0 57.742 0 55.409V38.576c0-2.334 1.892-4.226 4.225-4.226h12.303l23.098-19.14c1.262-1.046 3.012-1.269 4.493-.569 1.481.695 2.429 2.185 2.429 3.823l-.001 57.057zm16.237-6.602c-.103.007-.202.011-.304.011-1.116 0-2.192-.441-2.987-1.237l-.565-.567c-1.482-1.479-1.656-3.822-.408-5.504 3.164-4.266 4.834-9.323 4.834-14.628 0-5.706-1.896-11.058-5.484-15.478-1.366-1.68-1.24-4.12.291-5.65l.564-.565c.844-.844 1.975-1.304 3.199-1.231 1.192.06 2.305.621 3.061 1.545 4.977 6.09 7.606 13.484 7.606 21.38 0 7.354-2.325 14.354-6.725 20.24-.735.981-1.859 1.597-3.082 1.684zm17.468 13.057c-.764.903-1.869 1.445-3.052 1.495-.058.002-.117.004-.177.004-1.119 0-2.193-.442-2.988-1.237l-.555-.555c-1.551-1.55-1.656-4.029-.246-5.707 6.814-8.104 10.568-18.396 10.568-28.982 0-11.011-4.019-21.611-11.314-29.847-1.479-1.672-1.404-4.203.17-5.783l.554-.555c.822-.826 1.89-1.281 3.115-1.242 1.163.033 2.263.547 3.036 1.417 8.818 9.928 13.675 22.718 13.675 36.01.002 12.789-4.539 25.213-12.786 34.982z"/></svg>
